<svg width="16"
     height="16"
     viewBox="0 0 16 16"
     fill="#CED0D6"
     xmlns="http://www.w3.org/2000/svg">
    <path id="&#226;&#140;&#152;/alphabet/A" fill-rule="evenodd" clip-rule="evenodd" d="M13.41 13.2L12.4946 10.96L11.59 13.2H13.41ZM11.9526 9H13.046L16 16H14.46L13.76 14.6H11.24L10.54 16H9L11.9526 9Z"
          fill="#40B6E0"/>
    <path d="M8.76388 6.99518L10.8429 4.91615C11.6787 5.68642 12.1976 6.78882 12.1984 8C12.7322 8 14.0027 8 14.0027 8C14.0019 6.2943 13.2818 4.73954 12.1176 3.64139L13.7638 1.99518H8.76388L8.76388 6.99518Z"/>
    <path d="M6.9985 3.92594L7.1612 2.06625C4.37392 2.45783 2.16363 4.77811 2.01081 7.69405C1.91499 9.52244 2.64816 11.2025 3.88168 12.3692L2.23764 14.0132H7.23754V9.01324L5.15402 11.0968C4.26624 10.2788 3.73595 9.08623 3.80407 7.78653C3.90341 5.89091 5.24492 4.35491 6.9985 3.92594Z"/>
</svg>
