<?xml version="1.0" encoding="UTF-8" standalone="no"?>
<svg fill="#6C707E"
     width="16px"
     height="16px"
     viewBox="0 0 210 297"
     xmlns="http://www.w3.org/2000/svg">
    <path d="M -1.1543064,283.16832 C -19.499272,279.83856 -35.468562,276.69586 -36.641612,276.18457 -40.420839,274.53731 -43.5,270.12846 -43.5,266.36447 c 0,-2.84369 12.245888,-69.46403 13.05688,-71.03231 1.144121,-2.21248 4.456846,-4.96614 6.97369,-5.79679 4.423989,-1.46004 9.846162,0.49944 12.743836,4.60538 1.5892355,2.25193 1.7343513,2.85145 1.6724286,6.90929 -0.040737,2.67008 -1.4481466,11.91902 -3.5265176,23.17498 -2.728136,14.77497 -3.277682,18.66215 -2.601674,18.40272 0.471372,-0.18087 25.094652,-14.3243 54.718403,-31.42982 L 93.398412,180.09698 V 113.61892 47.140836 L 79.041476,61.472318 C 64.22424,76.263289 62.493974,77.598561 58.177297,77.57348 53.479765,77.54629 48.284134,73.572662 47.027055,69.045928 c -0.7606,-2.738905 -0.75883,-3.374115 0.01757,-6.25169 0.531356,-1.969647 4.454014,-6.161864 25.955263,-27.738973 C 86.931001,21.075001 99.08679,9.2358953 100.01277,8.7461414 c 1.87566,-0.9920551 6.09902,-1.2679209 8.7578,-0.5720531 1.22456,0.3204903 9.27261,7.9651257 27.15891,25.7975697 13.98028,13.93817 25.75722,25.994709 26.17101,26.792311 4.78847,9.230158 -5.01297,19.904486 -14.62834,15.931052 -1.41421,-0.584434 -7.09899,-5.824803 -16.51357,-15.222703 L 116.6016,47.140836 v 66.459494 66.45947 l 54.55249,31.49586 c 30.00388,17.32271 54.62527,31.39838 54.71421,31.27928 0.0891,-0.119 -1.49524,-9.22224 -3.52047,-20.22922 -4.1467,-22.53732 -4.2672,-24.72363 -1.57282,-28.5375 2.85093,-4.03545 8.30284,-5.98219 12.69442,-4.53285 2.51686,0.83065 5.82958,3.58431 6.9737,5.79679 0.81099,1.56828 13.05687,68.18862 13.05687,71.03231 0,2.11419 -1.51983,5.54358 -3.26365,7.3642 -2.90907,3.03715 -0.16138,2.42024 -52.42384,11.76971 -23.03202,4.1203 -23.51024,4.14261 -27.81014,1.29706 -4.03777,-2.67207 -5.86253,-9.18141 -3.89278,-13.88658 1.23013,-2.93841 5.03126,-6.002 8.28721,-6.67928 1.55262,-0.32293 9.83356,-1.83514 18.40208,-3.3604 13.38569,-2.38281 15.43261,-2.88038 14.53847,-3.53421 -0.57238,-0.41851 -23.70724,-13.84252 -51.41082,-29.83113 -30.4481,-17.57254 -50.76695,-28.96515 -51.37343,-28.80461 -1.01287,0.26811 -101.5626655,58.17972 -102.3742446,58.96242 -0.2405795,0.232 7.3294406,1.80622 16.8222606,3.49826 9.492823,1.69203 18.042782,3.40001 18.999911,3.79548 2.512569,1.0382 5.955903,5.09813 6.419441,7.56894 1.376409,7.33691 -2.815472,13.42777 -9.899909,14.38467 -1.576987,0.21311 -13.005619,-1.62606 -35.6747982,-5.74068 z"/>
</svg>
