<?xml version="1.0" encoding="UTF-8" standalone="no"?>
<svg fill="#CED0D6"
     width="16px"
     height="16px"
     viewBox="0 0 210 297"
     xmlns="http://www.w3.org/2000/svg">
    <path d="M 19.015012,257.5541 C 4.1555897,254.857 -8.7795354,252.31141 -9.7297059,251.89727 -12.790879,250.56298 -15.285,246.99182 -15.285,243.94298 c 0,-2.30338 9.9191691,-56.26586 10.5760728,-57.53617 0.9267381,-1.7921 3.6100449,-4.02257 5.6486889,-4.6954 3.5834311,-1.18263 7.9753912,0.40454 10.3225073,3.73036 1.287281,1.82407 1.404824,2.30967 1.354667,5.59652 -0.033,2.16277 -1.172999,9.65441 -2.8564792,18.77174 -2.2097902,11.96772 -2.6549224,15.11634 -2.107356,14.9062 0.3818114,-0.1465 20.3266682,-11.60268 44.3219062,-25.45816 L 95.602714,174.06632 V 120.21908 66.371838 l -11.629119,11.6085 C 71.971634,89.961025 70.570119,91.042595 67.07361,91.022279 c -3.805001,-0.02202 -8.013461,-3.240663 -9.031696,-6.907317 -0.616086,-2.218513 -0.614652,-2.733033 0.01423,-5.063868 0.430399,-1.595415 3.607752,-4.991111 21.023763,-22.468569 11.284202,-11.324014 21.130393,-20.91369 21.880433,-21.31039 1.51929,-0.803565 4.94021,-1.027016 7.09382,-0.463363 0.9919,0.259597 7.51081,6.451752 21.99872,20.896032 11.32402,11.289917 20.86335,21.055714 21.19852,21.701772 3.87865,7.476428 -4.06051,16.122633 -11.84895,12.904151 -1.14551,-0.473391 -5.75019,-4.71809 -13.376,-12.330389 l -11.62915,-11.6085 v 53.832192 53.83217 l 44.18751,25.51165 c 24.30314,14.03139 44.24647,25.43268 44.31851,25.33621 0.0722,-0.0964 -1.21114,-7.47002 -2.85157,-16.38567 -3.35883,-18.25523 -3.45644,-20.02614 -1.27399,-23.11537 2.30926,-3.26871 6.7253,-4.84558 10.28248,-3.67161 2.03865,0.67283 4.72196,2.9033 5.6487,4.6954 0.6569,1.27031 10.57606,55.23279 10.57606,57.53617 0,1.7125 -1.23106,4.4903 -2.64355,5.96501 -2.35635,2.46008 -0.13073,1.96039 -42.46332,9.53346 -18.65593,3.33745 -19.04329,3.35551 -22.52621,1.05062 -3.27059,-2.16438 -4.74865,-7.43695 -3.15315,-11.24813 0.99641,-2.38011 4.07532,-4.86162 6.71264,-5.41022 1.25762,-0.26157 7.96518,-1.48646 14.90568,-2.72192 10.84241,-1.93008 12.50042,-2.33311 11.77617,-2.86271 -0.46364,-0.33899 -19.20287,-11.21244 -41.64277,-24.16322 -24.66296,-14.23376 -41.12123,-23.46177 -41.61248,-23.33173 -0.82042,0.21717 -82.26576,47.12557 -82.923139,47.75956 -0.19487,0.18792 5.936846,1.46304 13.626031,2.83359 7.689187,1.37054 14.614653,2.754 15.389928,3.07433 2.03518,0.84094 4.824281,4.12949 5.199747,6.13085 1.114891,5.9429 -2.280533,10.87649 -8.018926,11.65158 -1.277359,0.17262 -10.534552,-1.31711 -28.896587,-4.64995 z"/>
</svg>
